<svg width="20" height="20" viewBox="0 0 20 20" fill="none" xmlns="http://www.w3.org/2000/svg">
<path d="M13.1187 10.4372L12.8559 10.3472L13.0848 10.1904C14.0447 9.53178 14.7688 8.58314 15.1508 7.48341C15.5329 6.38368 15.553 5.19047 15.2082 4.07848C14.8634 2.9665 14.1718 1.99409 13.2346 1.30344C12.2974 0.612796 11.1637 0.240234 9.99946 0.240234C8.83524 0.240234 7.70159 0.612796 6.76435 1.30344C5.82712 1.99409 5.13552 2.9665 4.79072 4.07848C4.44592 5.19047 4.46602 6.38368 4.84811 7.48341C5.23019 8.58314 5.95421 9.53178 6.91419 10.1904L7.14301 10.3472L6.88028 10.4372C5.51666 10.9027 4.27747 11.6738 3.25737 12.6915C1.50045 14.4214 0.497351 16.7748 0.466064 19.2402H1.69699C1.74601 17.0706 2.6423 15.0063 4.19408 13.4892C5.74585 11.9721 7.82984 11.1226 10 11.1226C12.1702 11.1226 14.2541 11.9721 15.8059 13.4892C17.3577 15.0063 18.254 17.0706 18.303 19.2402H19.534C19.5027 16.7748 18.4995 14.4214 16.7426 12.6915C15.7222 11.6737 14.4826 10.9026 13.1187 10.4372ZM5.77754 5.73381C5.77061 4.89723 6.01233 4.07748 6.47208 3.37852C6.93182 2.67955 7.58882 2.13284 8.35975 1.80789C9.13067 1.48293 9.98076 1.39432 10.8021 1.55327C11.6235 1.71223 12.3791 2.11155 12.9732 2.70066C13.5672 3.28977 13.9728 4.0421 14.1386 4.86212C14.3044 5.68214 14.2228 6.53291 13.9043 7.30651C13.5858 8.08011 13.0446 8.74161 12.3495 9.20714C11.6544 9.67268 10.8366 9.92131 10 9.92134C8.88515 9.92472 7.81448 9.48567 7.02288 8.70063C6.23129 7.91558 5.78342 6.84866 5.77754 5.73381Z" fill="#AFB0C0"/>
</svg>
