<svg width="27" height="20" viewBox="0 0 27 20" fill="none" xmlns="http://www.w3.org/2000/svg">
<path fill-rule="evenodd" clip-rule="evenodd" d="M0.833374 1.27048C0.833374 0.701489 1.29463 0.240234 1.86361 0.240234H25.9027C26.4716 0.240234 26.9329 0.701489 26.9329 1.27048C26.9329 1.83946 26.4716 2.30072 25.9027 2.30072H1.86361C1.29463 2.30072 0.833374 1.83946 0.833374 1.27048ZM0.833374 9.74028C0.833374 9.1713 1.29463 8.71004 1.86361 8.71004H25.9027C26.4716 8.71004 26.9329 9.1713 26.9329 9.74028C26.9329 10.3093 26.4716 10.7705 25.9027 10.7705H1.86361C1.29463 10.7705 0.833374 10.3093 0.833374 9.74028ZM1.86361 17.1798C1.29463 17.1798 0.833374 17.6411 0.833374 18.2101C0.833374 18.7791 1.29463 19.2403 1.86362 19.2403H21.5527C22.1217 19.2403 22.583 18.7791 22.583 18.2101C22.583 17.6411 22.1217 17.1798 21.5527 17.1798H1.86361Z" fill="#AFB0C0"/>
</svg>
