<svg width="23" height="21" viewBox="0 0 23 21" fill="none" xmlns="http://www.w3.org/2000/svg">
<mask id="path-1-outside-1" maskUnits="userSpaceOnUse" x="0.154419" y="0.0200195" width="22" height="21" fill="black">
<rect fill="white" x="0.154419" y="0.0200195" width="22" height="21"/>
<path fill-rule="evenodd" clip-rule="evenodd" d="M11.8158 1.12049L21.6236 8.10856C21.6805 8.14783 21.7289 8.19816 21.766 8.2566C21.803 8.31504 21.8278 8.38029 21.839 8.44857C21.8501 8.51684 21.8474 8.58667 21.8309 8.65386C21.8145 8.72104 21.7846 8.78428 21.7431 8.83964C21.657 8.9523 21.5306 9.02715 21.3904 9.04858C21.2502 9.07002 21.1072 9.03634 20.9913 8.95457L11.5008 2.19312L2.01038 8.95457C1.89462 9.03662 1.75151 9.07045 1.61125 9.04901C1.47099 9.02756 1.34455 8.95254 1.2586 8.83964C1.21689 8.78456 1.18673 8.72157 1.1699 8.65456C1.15307 8.58755 1.14992 8.51794 1.16065 8.44969C1.17138 8.38144 1.19576 8.31606 1.23234 8.25745C1.26892 8.19884 1.31695 8.14819 1.37354 8.10856L11.1813 1.12049C11.2741 1.05503 11.3849 1.02002 11.4985 1.02002C11.6121 1.02002 11.723 1.05503 11.8158 1.12049ZM18.8765 10.1584C18.9415 10.1328 19.011 10.1203 19.0809 10.1215C19.2208 10.1212 19.3553 10.176 19.4551 10.2741C19.555 10.3722 19.6121 10.5057 19.6143 10.6456V19.4971C19.6131 19.567 19.5981 19.6359 19.5702 19.7C19.5424 19.7641 19.5022 19.8222 19.4519 19.8707C19.4016 19.9193 19.3423 19.9574 19.2772 19.983C19.2122 20.0086 19.1427 20.0213 19.0728 20.02H13.6563C13.522 20.0221 13.3919 19.9735 13.2918 19.8841C13.1917 19.7946 13.129 19.6708 13.116 19.5372V19.4971V14.4287C13.1002 14.0082 12.922 13.6103 12.6189 13.3184C12.3158 13.0265 11.9114 12.8633 11.4906 12.8633C11.0698 12.8633 10.6653 13.0265 10.3622 13.3184C10.0591 13.6103 9.88096 14.0082 9.86514 14.4287V19.4971V19.5372C9.85218 19.6706 9.78956 19.7944 9.6897 19.8838C9.58985 19.9732 9.46004 20.0218 9.326 20.02H3.90946C3.83956 20.0213 3.7701 20.0086 3.70506 19.983C3.64002 19.9574 3.58067 19.9193 3.53039 19.8707C3.48012 19.8222 3.43991 19.7641 3.41205 19.7C3.38419 19.6359 3.36922 19.567 3.36802 19.4971V10.6456C3.37445 10.5062 3.43436 10.3747 3.53531 10.2783C3.63625 10.1819 3.77046 10.128 3.91004 10.128C4.04961 10.128 4.18381 10.1819 4.28475 10.2783C4.38569 10.3747 4.44561 10.5062 4.45203 10.6456V18.9728H8.78804V14.4276C8.81308 13.7259 9.10943 13.0612 9.6147 12.5737C10.12 12.0861 10.7947 11.8137 11.4969 11.8137C12.199 11.8137 12.8738 12.0861 13.3791 12.5737C13.8843 13.0612 14.1807 13.7259 14.2057 14.4276V18.9728H18.5394V10.6445C18.5406 10.5746 18.5556 10.5056 18.5835 10.4415C18.6113 10.3774 18.6515 10.3194 18.7018 10.2708C18.7521 10.2223 18.8115 10.1841 18.8765 10.1584Z"/>
</mask>
<path fill-rule="evenodd" clip-rule="evenodd" d="M11.8158 1.12049L21.6236 8.10856C21.6805 8.14783 21.7289 8.19816 21.766 8.2566C21.803 8.31504 21.8278 8.38029 21.839 8.44857C21.8501 8.51684 21.8474 8.58667 21.8309 8.65386C21.8145 8.72104 21.7846 8.78428 21.7431 8.83964C21.657 8.9523 21.5306 9.02715 21.3904 9.04858C21.2502 9.07002 21.1072 9.03634 20.9913 8.95457L11.5008 2.19312L2.01038 8.95457C1.89462 9.03662 1.75151 9.07045 1.61125 9.04901C1.47099 9.02756 1.34455 8.95254 1.2586 8.83964C1.21689 8.78456 1.18673 8.72157 1.1699 8.65456C1.15307 8.58755 1.14992 8.51794 1.16065 8.44969C1.17138 8.38144 1.19576 8.31606 1.23234 8.25745C1.26892 8.19884 1.31695 8.14819 1.37354 8.10856L11.1813 1.12049C11.2741 1.05503 11.3849 1.02002 11.4985 1.02002C11.6121 1.02002 11.723 1.05503 11.8158 1.12049ZM18.8765 10.1584C18.9415 10.1328 19.011 10.1203 19.0809 10.1215C19.2208 10.1212 19.3553 10.176 19.4551 10.2741C19.555 10.3722 19.6121 10.5057 19.6143 10.6456V19.4971C19.6131 19.567 19.5981 19.6359 19.5702 19.7C19.5424 19.7641 19.5022 19.8222 19.4519 19.8707C19.4016 19.9193 19.3423 19.9574 19.2772 19.983C19.2122 20.0086 19.1427 20.0213 19.0728 20.02H13.6563C13.522 20.0221 13.3919 19.9735 13.2918 19.8841C13.1917 19.7946 13.129 19.6708 13.116 19.5372V19.4971V14.4287C13.1002 14.0082 12.922 13.6103 12.6189 13.3184C12.3158 13.0265 11.9114 12.8633 11.4906 12.8633C11.0698 12.8633 10.6653 13.0265 10.3622 13.3184C10.0591 13.6103 9.88096 14.0082 9.86514 14.4287V19.4971V19.5372C9.85218 19.6706 9.78956 19.7944 9.6897 19.8838C9.58985 19.9732 9.46004 20.0218 9.326 20.02H3.90946C3.83956 20.0213 3.7701 20.0086 3.70506 19.983C3.64002 19.9574 3.58067 19.9193 3.53039 19.8707C3.48012 19.8222 3.43991 19.7641 3.41205 19.7C3.38419 19.6359 3.36922 19.567 3.36802 19.4971V10.6456C3.37445 10.5062 3.43436 10.3747 3.53531 10.2783C3.63625 10.1819 3.77046 10.128 3.91004 10.128C4.04961 10.128 4.18381 10.1819 4.28475 10.2783C4.38569 10.3747 4.44561 10.5062 4.45203 10.6456V18.9728H8.78804V14.4276C8.81308 13.7259 9.10943 13.0612 9.6147 12.5737C10.12 12.0861 10.7947 11.8137 11.4969 11.8137C12.199 11.8137 12.8738 12.0861 13.3791 12.5737C13.8843 13.0612 14.1807 13.7259 14.2057 14.4276V18.9728H18.5394V10.6445C18.5406 10.5746 18.5556 10.5056 18.5835 10.4415C18.6113 10.3774 18.6515 10.3194 18.7018 10.2708C18.7521 10.2223 18.8115 10.1841 18.8765 10.1584Z" fill="#10CB3C"/>
<path d="M21.6236 8.10856L21.5075 8.27147L21.51 8.27322L21.6236 8.10856ZM11.8158 1.12049L11.9319 0.957605L11.9311 0.957029L11.8158 1.12049ZM21.766 8.2566L21.9349 8.14959V8.14959L21.766 8.2566ZM21.8309 8.65386L22.0252 8.70149L22.0252 8.70148L21.8309 8.65386ZM21.7431 8.83964L21.902 8.96112L21.9032 8.95956L21.7431 8.83964ZM20.9913 8.95457L20.8753 9.11746L20.876 9.11797L20.9913 8.95457ZM11.5008 2.19312L11.6169 2.03023L11.5008 1.94755L11.3848 2.03023L11.5008 2.19312ZM2.01038 8.95457L2.12604 9.11773L2.12643 9.11746L2.01038 8.95457ZM1.61125 9.04901L1.64148 8.8513L1.64148 8.8513L1.61125 9.04901ZM1.2586 8.83964L1.09915 8.96037L1.09947 8.96079L1.2586 8.83964ZM1.16065 8.44969L1.35823 8.48075H1.35823L1.16065 8.44969ZM1.23234 8.25745L1.06267 8.15155H1.06267L1.23234 8.25745ZM1.37354 8.10856L1.48825 8.2724L1.4896 8.27145L1.37354 8.10856ZM11.1813 1.12049L11.066 0.957027L11.0652 0.957607L11.1813 1.12049ZM19.0809 10.1215L19.0774 10.3215L19.0813 10.3215L19.0809 10.1215ZM18.8765 10.1584L18.9498 10.3445L18.9498 10.3445L18.8765 10.1584ZM19.4551 10.2741L19.5953 10.1314V10.1314L19.4551 10.2741ZM19.6143 10.6456H19.8143L19.8142 10.6426L19.6143 10.6456ZM19.6143 19.4971L19.8143 19.5005V19.4971H19.6143ZM19.5702 19.7L19.7537 19.7797L19.7537 19.7797L19.5702 19.7ZM19.2772 19.983L19.3505 20.1691H19.3505L19.2772 19.983ZM19.0728 20.02L19.0763 19.82H19.0728V20.02ZM13.6563 20.02V19.82L13.6532 19.8201L13.6563 20.02ZM13.116 19.5372H12.916V19.5469L12.9169 19.5565L13.116 19.5372ZM13.116 14.4287H13.3161L13.3159 14.4212L13.116 14.4287ZM12.6189 13.3184L12.4802 13.4624V13.4624L12.6189 13.3184ZM10.3622 13.3184L10.501 13.4624L10.501 13.4624L10.3622 13.3184ZM9.86514 14.4287L9.66514 14.4212V14.4287H9.86514ZM9.86514 19.5372L10.0642 19.5565L10.0651 19.5469V19.5372H9.86514ZM9.6897 19.8838L9.55628 19.7348V19.7348L9.6897 19.8838ZM9.326 20.02L9.32866 19.82H9.326V20.02ZM3.90946 20.02V19.82L3.90597 19.8201L3.90946 20.02ZM3.70506 19.983L3.63174 20.1691L3.63174 20.1691L3.70506 19.983ZM3.41205 19.7L3.59548 19.6203H3.59548L3.41205 19.7ZM3.36802 19.4971H3.16799L3.16805 19.5005L3.36802 19.4971ZM3.36802 10.6456L3.16802 10.6364V10.6456H3.36802ZM3.53531 10.2783L3.39718 10.1336L3.39718 10.1336L3.53531 10.2783ZM4.28475 10.2783L4.42288 10.1336L4.42288 10.1336L4.28475 10.2783ZM4.45203 10.6456H4.65225L4.65182 10.6364L4.45203 10.6456ZM4.45203 18.9728H4.25203V19.1728H4.45203V18.9728ZM8.78804 18.9728V19.1728H8.98804V18.9728H8.78804ZM8.78804 14.4276L8.58804 14.4205V14.4276H8.78804ZM9.6147 12.5737L9.75358 12.7176L9.6147 12.5737ZM13.3791 12.5737L13.2402 12.7176L13.3791 12.5737ZM14.2057 14.4276H14.4059L14.4056 14.4205L14.2057 14.4276ZM14.2057 18.9728H14.0057V19.1728H14.2057V18.9728ZM18.5394 18.9728V19.1728H18.7394V18.9728H18.5394ZM18.5394 10.6445L18.3394 10.6411V10.6445H18.5394ZM18.5835 10.4415L18.4 10.3618L18.4 10.3618L18.5835 10.4415ZM18.7018 10.2708L18.5629 10.127L18.5628 10.127L18.7018 10.2708ZM21.7396 7.94568L11.9319 0.957607L11.6998 1.28337L21.5075 8.27145L21.7396 7.94568ZM21.9349 8.14959C21.8835 8.06835 21.8162 7.99843 21.7371 7.94391L21.51 8.27322C21.5448 8.29723 21.5744 8.32798 21.597 8.36362L21.9349 8.14959ZM22.0363 8.41629C22.0208 8.32142 21.9863 8.23075 21.9349 8.14959L21.597 8.36362C21.6196 8.39934 21.6348 8.43917 21.6416 8.48084L22.0363 8.41629ZM22.0252 8.70148C22.0481 8.60812 22.0518 8.51111 22.0363 8.41629L21.6416 8.48084C21.6484 8.52256 21.6467 8.56522 21.6367 8.60624L22.0252 8.70148ZM21.9032 8.95956C21.9608 8.88261 22.0023 8.79478 22.0252 8.70149L21.6367 8.60623C21.6266 8.64731 21.6083 8.68595 21.583 8.71973L21.9032 8.95956ZM21.4206 9.24629C21.6119 9.21704 21.7844 9.1149 21.902 8.96111L21.5842 8.71817C21.5295 8.7897 21.4492 8.83726 21.3602 8.85088L21.4206 9.24629ZM20.876 9.11797C21.0341 9.22958 21.2293 9.27553 21.4206 9.24629L21.3602 8.85088C21.2711 8.8645 21.1802 8.8431 21.1067 8.79117L20.876 9.11797ZM11.3848 2.35601L20.8753 9.11746L21.1074 8.79168L11.6169 2.03023L11.3848 2.35601ZM2.12643 9.11746L11.6169 2.35601L11.3848 2.03023L1.89433 8.79168L2.12643 9.11746ZM1.58102 9.24671C1.7725 9.27599 1.96792 9.22981 2.12604 9.11773L1.89472 8.7914C1.82131 8.84344 1.73052 8.86492 1.64148 8.8513L1.58102 9.24671ZM1.09947 8.96079C1.21687 9.11501 1.38955 9.21743 1.58102 9.24671L1.64148 8.8513C1.55242 8.83769 1.47223 8.79008 1.41773 8.71849L1.09947 8.96079ZM0.975921 8.70327C0.999285 8.7963 1.04117 8.8838 1.09915 8.96037L1.41805 8.71892C1.39262 8.68532 1.37417 8.64683 1.36387 8.60584L0.975921 8.70327ZM0.963081 8.41862C0.948171 8.51345 0.952547 8.6102 0.975921 8.70327L1.36387 8.60584C1.35359 8.5649 1.35167 8.52242 1.35823 8.48075L0.963081 8.41862ZM1.06267 8.15155C1.01185 8.23299 0.977987 8.32382 0.963081 8.41862L1.35823 8.48075C1.36478 8.43905 1.37967 8.39912 1.40201 8.36334L1.06267 8.15155ZM1.25883 7.94473C1.18019 7.99979 1.11348 8.07015 1.06267 8.15155L1.40201 8.36334C1.42436 8.32752 1.4537 8.29659 1.48825 8.2724L1.25883 7.94473ZM11.0652 0.957607L1.25749 7.94568L1.4896 8.27145L11.2973 1.28337L11.0652 0.957607ZM11.4985 0.82002C11.3438 0.82002 11.1927 0.867712 11.066 0.957029L11.2965 1.28395C11.3555 1.24236 11.4261 1.22002 11.4985 1.22002V0.82002ZM11.9311 0.957029C11.8044 0.867712 11.6533 0.82002 11.4985 0.82002V1.22002C11.571 1.22002 11.6416 1.24236 11.7006 1.28395L11.9311 0.957029ZM19.0844 9.92157C18.9883 9.91989 18.8928 9.93706 18.8032 9.97237L18.9498 10.3445C18.9903 10.3286 19.0336 10.3207 19.0774 10.3215L19.0844 9.92157ZM19.5953 10.1314C19.4579 9.99638 19.2729 9.9211 19.0804 9.92154L19.0813 10.3215C19.1688 10.3213 19.2527 10.3555 19.3149 10.4167L19.5953 10.1314ZM19.8142 10.6426C19.8113 10.4501 19.7327 10.2664 19.5953 10.1314L19.3149 10.4167C19.3773 10.478 19.413 10.5613 19.4143 10.6487L19.8142 10.6426ZM19.8143 19.4971V10.6456H19.4143V19.4971H19.8143ZM19.7537 19.7797C19.792 19.6915 19.8126 19.5967 19.8142 19.5005L19.4143 19.4936C19.4135 19.5372 19.4042 19.5802 19.3868 19.6203L19.7537 19.7797ZM19.5908 20.0146C19.6601 19.9477 19.7154 19.8678 19.7537 19.7797L19.3868 19.6203C19.3694 19.6604 19.3442 19.6967 19.3129 19.7269L19.5908 20.0146ZM19.3505 20.1691C19.4398 20.1339 19.5215 20.0815 19.5908 20.0146L19.3129 19.7269C19.2817 19.7571 19.2447 19.7808 19.2039 19.7969L19.3505 20.1691ZM19.0693 20.22C19.1656 20.2217 19.2612 20.2043 19.3505 20.1691L19.2039 19.7969C19.1632 19.813 19.1198 19.8208 19.0763 19.8201L19.0693 20.22ZM13.6563 20.22H19.0728V19.82H13.6563V20.22ZM13.1586 20.0332C13.2961 20.1561 13.4748 20.2229 13.6594 20.22L13.6532 19.8201C13.5693 19.8214 13.4878 19.791 13.4251 19.7349L13.1586 20.0332ZM12.9169 19.5565C12.9348 19.7401 13.021 19.9103 13.1586 20.0332L13.4251 19.7349C13.3625 19.679 13.3232 19.6015 13.3151 19.5179L12.9169 19.5565ZM12.916 19.4971V19.5372H13.316V19.4971H12.916ZM12.916 14.4287V19.4971H13.316V14.4287H12.916ZM12.4802 13.4624C12.746 13.7184 12.9023 14.0675 12.9161 14.4363L13.3159 14.4212C13.2981 13.949 13.098 13.5021 12.7576 13.1743L12.4802 13.4624ZM11.4906 13.0633C11.8596 13.0633 12.2143 13.2064 12.4802 13.4624L12.7576 13.1743C12.4173 12.8465 11.9631 12.6633 11.4906 12.6633V13.0633ZM10.501 13.4624C10.7668 13.2064 11.1215 13.0633 11.4906 13.0633V12.6633C11.018 12.6633 10.5638 12.8465 10.2235 13.1743L10.501 13.4624ZM10.065 14.4363C10.0789 14.0675 10.2351 13.7184 10.501 13.4624L10.2235 13.1743C9.88312 13.5021 9.68305 13.949 9.66528 14.4212L10.065 14.4363ZM10.0651 19.4971V14.4287H9.66514V19.4971H10.0651ZM10.0651 19.5372V19.4971H9.66514V19.5372H10.0651ZM9.82313 20.0328C9.96037 19.9099 10.0464 19.7398 10.0642 19.5565L9.66608 19.5179C9.65796 19.6014 9.61875 19.6789 9.55628 19.7348L9.82313 20.0328ZM9.32335 20.22C9.50749 20.2225 9.68588 20.1557 9.82313 20.0328L9.55628 19.7348C9.49381 19.7907 9.41258 19.8212 9.32866 19.8201L9.32335 20.22ZM3.90946 20.22H9.326V19.82H3.90946V20.22ZM3.63174 20.1691C3.7211 20.2043 3.81665 20.2217 3.91294 20.22L3.90597 19.8201C3.86248 19.8208 3.81911 19.813 3.77838 19.7969L3.63174 20.1691ZM3.39144 20.0146C3.46076 20.0815 3.54245 20.1339 3.63174 20.1691L3.77838 19.7969C3.73759 19.7808 3.70059 19.7571 3.66935 19.7269L3.39144 20.0146ZM3.22862 19.7797C3.2669 19.8678 3.32218 19.9477 3.39144 20.0146L3.66935 19.7269C3.63805 19.6967 3.61292 19.6604 3.59548 19.6203L3.22862 19.7797ZM3.16805 19.5005C3.1697 19.5967 3.19031 19.6915 3.22862 19.7797L3.59548 19.6203C3.57807 19.5802 3.56874 19.5372 3.56799 19.4936L3.16805 19.5005ZM3.16802 10.6456V19.4971H3.56802V10.6456H3.16802ZM3.39718 10.1336C3.25905 10.2655 3.17703 10.4456 3.16823 10.6364L3.56781 10.6548C3.57186 10.5668 3.60968 10.4838 3.67343 10.4229L3.39718 10.1336ZM3.91004 9.92799C3.71892 9.92799 3.53526 10.0018 3.39718 10.1336L3.67343 10.4229C3.73723 10.362 3.822 10.328 3.91004 10.328V9.92799ZM4.42288 10.1336C4.2848 10.0018 4.10116 9.92799 3.91004 9.92799V10.328C3.99807 10.328 4.08282 10.362 4.14662 10.4229L4.42288 10.1336ZM4.65182 10.6364C4.64303 10.4456 4.56101 10.2655 4.42288 10.1336L4.14662 10.4229C4.21038 10.4838 4.24819 10.5668 4.25225 10.6548L4.65182 10.6364ZM4.65203 18.9728V10.6456H4.25203V18.9728H4.65203ZM8.78804 18.7728H4.45203V19.1728H8.78804V18.7728ZM8.58804 14.4276V18.9728H8.98804V14.4276H8.58804ZM9.47582 12.4298C8.93326 12.9533 8.61506 13.667 8.58817 14.4205L8.98791 14.4348C9.01111 13.7848 9.28559 13.1692 9.75358 12.7176L9.47582 12.4298ZM11.4969 11.6137C10.7429 11.6137 10.0184 11.9062 9.47582 12.4298L9.75358 12.7176C10.2216 12.266 10.8465 12.0137 11.4969 12.0137V11.6137ZM13.5179 12.4298C12.9754 11.9062 12.2508 11.6137 11.4969 11.6137V12.0137C12.1472 12.0137 12.7722 12.266 13.2402 12.7176L13.5179 12.4298ZM14.4056 14.4205C14.3787 13.667 14.0605 12.9533 13.5179 12.4298L13.2402 12.7176C13.7082 13.1692 13.9827 13.7848 14.0059 14.4348L14.4056 14.4205ZM14.4057 18.9728V14.4276H14.0057V18.9728H14.4057ZM18.5394 18.7728H14.2057V19.1728H18.5394V18.7728ZM18.3394 10.6445V18.9728H18.7394V10.6445H18.3394ZM18.4 10.3618C18.3617 10.45 18.3411 10.5449 18.3395 10.6411L18.7394 10.6479C18.7402 10.6043 18.7495 10.5612 18.7669 10.5212L18.4 10.3618ZM18.5628 10.127C18.4937 10.1938 18.4384 10.2735 18.4 10.3618L18.7669 10.5212C18.7843 10.4812 18.8093 10.445 18.8408 10.4147L18.5628 10.127ZM18.8032 9.97237C18.7137 10.0076 18.632 10.0602 18.5629 10.127L18.8408 10.4147C18.8722 10.3844 18.9092 10.3605 18.9498 10.3445L18.8032 9.97237Z" fill="#10CB3C" mask="url(#path-1-outside-1)"/>
</svg>
