<svg width="20" height="20" viewBox="0 0 20 20" fill="none" xmlns="http://www.w3.org/2000/svg">
<path fill-rule="evenodd" clip-rule="evenodd" d="M18.5 9.74023C18.5 14.4347 14.6944 18.2402 10 18.2402C5.30558 18.2402 1.5 14.4347 1.5 9.74023C1.5 5.04581 5.30558 1.24023 10 1.24023C14.6944 1.24023 18.5 5.04581 18.5 9.74023ZM19.5 9.74023C19.5 14.9869 15.2467 19.2402 10 19.2402C4.75329 19.2402 0.5 14.9869 0.5 9.74023C0.5 4.49353 4.75329 0.240234 10 0.240234C15.2467 0.240234 19.5 4.49353 19.5 9.74023ZM9.70312 11.5215C10.5229 11.5215 11.1875 10.8569 11.1875 10.0371C11.1875 9.21731 10.5229 8.55273 9.70312 8.55273C8.88333 8.55273 8.21875 9.21731 8.21875 10.0371C8.21875 10.8569 8.88333 11.5215 9.70312 11.5215ZM6.4375 10.0371C6.4375 10.8569 5.77292 11.5215 4.95312 11.5215C4.13333 11.5215 3.46875 10.8569 3.46875 10.0371C3.46875 9.21731 4.13333 8.55273 4.95312 8.55273C5.77292 8.55273 6.4375 9.21731 6.4375 10.0371ZM14.4531 11.5215C15.2729 11.5215 15.9375 10.8569 15.9375 10.0371C15.9375 9.21731 15.2729 8.55273 14.4531 8.55273C13.6333 8.55273 12.9688 9.21731 12.9688 10.0371C12.9688 10.8569 13.6333 11.5215 14.4531 11.5215Z" fill="#AFB0C0"/>
</svg>
