<svg width="19" height="20" viewBox="0 0 19 20" fill="none" xmlns="http://www.w3.org/2000/svg">
<path d="M18.8356 18.2707L14.2203 13.6547C15.5967 12.0688 16.3037 10.0103 16.1923 7.91326C16.0809 5.8162 15.1598 3.84429 13.6232 2.41315C12.0865 0.982013 10.0543 0.203492 7.95495 0.241568C5.85557 0.279644 3.85295 1.13137 2.36919 2.61729C0.885442 4.1032 0.0364498 6.10719 0.00114654 8.20691C-0.0341567 10.3066 0.746998 12.3381 2.17996 13.873C3.61292 15.408 5.5858 16.3267 7.68272 16.4354C9.77963 16.544 11.8368 15.8342 13.4207 14.4556L18.036 19.0715C18.142 19.1781 18.2856 19.2386 18.4358 19.2402C18.5104 19.2404 18.5842 19.2256 18.6529 19.1966C18.7216 19.1676 18.7837 19.1251 18.8356 19.0715C18.941 18.9649 19 18.821 19 18.6711C19 18.5212 18.941 18.3773 18.8356 18.2707ZM8.10491 15.3101C6.72785 15.3101 5.38174 14.9017 4.23676 14.1365C3.09178 13.3714 2.19937 12.2838 1.67239 11.0114C1.14542 9.73897 1.0075 8.33892 1.27615 6.98814C1.5448 5.63736 2.20791 4.39662 3.18164 3.42276C4.15536 2.4489 5.39599 1.78569 6.74659 1.51701C8.09718 1.24832 9.4971 1.38612 10.7693 1.91317C12.0416 2.44022 13.129 3.33282 13.8941 4.47796C14.6591 5.6231 15.0674 6.9694 15.0674 8.34665C15.0646 10.1924 14.3304 11.9618 13.0255 13.2671C11.7206 14.5723 9.95147 15.307 8.10594 15.3101H8.10491Z" fill="#AFB0C0"/>
</svg>
